<?xml version="1.0" standalone="no"?>
<!DOCTYPE svg PUBLIC "-//W3C//DTD SVG 20010904//EN"
 "http://www.w3.org/TR/2001/REC-SVG-20010904/DTD/svg10.dtd">
<svg version="1.0" xmlns="http://www.w3.org/2000/svg"
 width="241.000000pt" height="241.000000pt" viewBox="0 0 241.000000 241.000000"
 preserveAspectRatio="xMidYMid meet">
<metadata>
Created by potrace 1.11, written by Peter Selinger 2001-2013
</metadata>
<g transform="translate(0.000000,241.000000) scale(0.100000,-0.100000)"
fill="#000000" stroke="none">
<path d="M1094 2120 c-267 -38 -492 -235 -560 -490 -34 -128 -26 -276 21 -411
l23 -66 -40 -94 c-59 -140 -52 -191 29 -225 28 -12 42 -10 137 16 59 17 112
30 120 30 8 0 41 -13 73 -29 115 -57 304 -80 428 -51 207 47 383 187 467 370
58 125 74 315 39 453 -36 136 -109 252 -218 342 -148 122 -341 180 -519 155z
m226 -69 c206 -53 372 -206 442 -410 33 -95 33 -287 -1 -381 -124 -352 -508
-511 -846 -351 -88 42 -83 41 -191 10 -110 -32 -134 -35 -152 -17 -19 19 -15
40 28 145 45 108 45 110 4 223 -28 79 -37 205 -22 296 26 151 130 306 267 398
128 86 329 123 471 87z"/>
<path d="M1122 1808 c-133 -21 -247 -122 -286 -253 -23 -75 -15 -178 19 -249
105 -221 389 -279 568 -116 147 135 158 361 25 506 -84 91 -203 132 -326 112z
m183 -82 c61 -28 117 -83 147 -145 32 -65 32 -187 1 -251 -93 -189 -333 -232
-479 -86 -64 65 -92 134 -89 221 5 136 93 244 225 278 69 18 132 12 195 -17z"/>
<path d="M1140 496 c-90 -29 -102 -162 -17 -197 56 -23 113 -9 142 34 58 89
-24 196 -125 163z m68 -52 c43 -30 19 -114 -33 -114 -29 0 -57 33 -57 65 0 30
28 65 51 65 9 0 27 -7 39 -16z"/>
<path d="M1347 493 c-15 -7 -30 -25 -33 -38 -8 -30 19 -75 44 -75 10 0 28 -7
41 -16 20 -14 21 -18 8 -25 -9 -6 -27 -5 -43 1 -32 12 -54 7 -54 -14 0 -19 71
-46 101 -39 37 9 59 33 59 64 0 25 -21 58 -38 60 -28 3 -46 9 -56 19 -17 17
11 29 45 20 23 -7 31 -5 39 10 7 14 6 20 -8 25 -45 19 -80 22 -105 8z"/>
<path d="M54 482 c-83 -67 -39 -195 66 -195 83 0 133 81 98 158 -23 52 -120
73 -164 37z m99 -34 c28 -22 32 -73 8 -97 -26 -26 -55 -27 -81 -1 -26 26 -25
58 2 87 24 26 46 29 71 11z"/>
<path d="M265 399 l0 -104 26 -3 c23 -3 26 0 22 22 -3 15 -1 27 6 27 6 1 16 3
21 4 6 1 19 3 30 4 32 2 60 37 60 74 0 49 -27 69 -103 74 l-63 5 1 -103z m111
40 c13 -21 -8 -49 -35 -49 -24 0 -29 4 -29 28 0 15 5 30 10 33 12 8 46 0 54
-12z"/>
<path d="M467 493 c-2 -5 -3 -51 -3 -103 l1 -95 78 -3 c72 -3 77 -1 77 18 0
12 -7 20 -17 21 -10 1 -33 2 -50 2 -18 1 -33 5 -33 10 0 4 0 12 0 17 0 6 20
10 44 10 37 0 44 3 41 18 -2 9 -4 20 -4 24 -1 3 -21 5 -46 4 -44 -2 -54 6 -37
30 4 6 26 10 49 9 33 -2 42 1 46 16 3 10 2 20 -1 23 -8 9 -140 7 -145 -1z"/>
<path d="M660 395 c0 -105 0 -105 25 -105 22 0 24 4 27 58 l3 57 43 -57 c32
-43 49 -58 67 -58 25 0 25 0 25 104 0 101 -1 103 -22 102 -21 -1 -23 -7 -25
-54 -1 -30 -3 -55 -5 -57 -2 -2 -25 23 -51 56 -29 36 -55 59 -67 59 -19 0 -20
-7 -20 -105z"/>
<path d="M887 493 c-10 -21 0 -38 23 -38 24 0 25 -2 28 -82 3 -81 3 -83 27
-83 26 0 29 11 27 123 -1 20 3 38 8 38 6 1 15 3 20 4 6 1 15 3 20 4 6 0 10 10
10 21 0 18 -7 20 -79 20 -44 0 -82 -3 -84 -7z"/>
<path d="M1536 479 c-66 -52 -39 -176 41 -192 58 -11 128 28 103 57 -10 13
-16 13 -45 -1 -31 -15 -36 -15 -59 1 -40 26 -31 94 14 109 8 2 29 -1 47 -9 27
-11 34 -10 45 3 10 13 9 18 -11 34 -32 26 -100 25 -135 -2z"/>
<path d="M1786 492 c-6 -10 -86 -194 -86 -199 0 -2 14 -3 30 -3 19 0 30 5 30
14 0 20 52 36 76 23 10 -6 23 -16 27 -24 4 -7 21 -13 37 -13 l28 0 -27 58
c-15 31 -33 73 -41 92 -7 19 -18 41 -23 48 -11 13 -43 16 -51 4z m38 -88 c9
-23 8 -24 -13 -24 -14 0 -18 5 -14 20 6 24 19 26 27 4z"/>
<path d="M1949 456 c0 -25 -1 -64 -1 -86 0 -79 1 -80 25 -80 22 0 23 4 22 61
l-1 62 30 -39 c54 -69 83 -94 101 -88 13 5 15 22 13 107 -3 94 -4 100 -25 103
-20 3 -22 -1 -25 -59 l-3 -62 -45 60 c-27 36 -55 61 -68 63 -20 3 -22 -1 -23
-42z"/>
<path d="M2257 487 c-15 -11 -28 -38 -76 -149 l-20 -48 29 0 c20 0 31 6 35 20
3 11 12 20 18 21 36 3 65 -5 87 -26 15 -14 31 -20 41 -16 15 5 11 18 -25 99
-43 98 -62 120 -89 99z m32 -89 c12 -16 11 -18 -13 -18 -24 0 -26 2 -16 21 7
11 13 19 14 17 1 -1 8 -11 15 -20z"/>
</g>
</svg>
